<svg xmlns="http://www.w3.org/2000/svg" width="480" height="200" viewBox="0 0 480 200">
  <defs>
    <linearGradient id="bg" x1="0" y1="0" x2="1" y2="1">
      <stop offset="0" stop-color="#0b0c12"/>
      <stop offset="1" stop-color="#1b1e2c"/>
    </linearGradient>
    <radialGradient id="glow" cx="50%" cy="45%" r="60%">
      <stop offset="0" stop-color="#9fc4e8" stop-opacity="0.45"/>
      <stop offset="100%" stop-color="#9fc4e8" stop-opacity="0"/>
    </radialGradient>
    <filter id="blur" x="-60%" y="-60%" width="220%" height="220%">
      <feGaussianBlur stdDeviation="14"/>
    </filter>
  </defs>

  <rect x="2" y="2" width="476" height="196" rx="26" fill="url(#bg)" stroke="#4d5670" stroke-width="1.5"/>

  <circle cx="100" cy="100" r="88" fill="url(#glow)" filter="url(#blur)"/>

  <rect x="26" y="26" width="148" height="148" rx="22" fill="#050507" stroke="#5c6785" stroke-width="2"/>

  <g transform="translate(40,40) scale(0.09569)">
    <path d="M 612.380 231.350 L 609.648 233.699 611.443 242.987 C 612.946 250.762, 613.139 255.308, 612.628 270.888 C 612.293 281.124, 611.732 298.778, 611.382 310.117 L 610.745 330.734 602.743 331.401 C 593.314 332.187, 590.756 333.276, 591.189 336.318 C 591.481 338.367, 592.094 338.517, 601.250 338.786 C 607.894 338.981, 611 339.447, 611 340.248 C 611 340.895, 612.884 343.344, 615.188 345.691 C 617.491 348.038, 619.085 350.248, 618.731 350.603 C 618.376 350.957, 609.404 350.288, 598.793 349.115 C 571.467 346.094, 533.848 343.882, 532.258 345.201 C 528.726 348.132, 532.380 350.992, 539.684 351.015 C 546.103 351.036, 546.678 351.537, 549.517 359.583 C 558.649 385.464, 541.248 422.085, 507.002 449.060 C 498.866 455.469, 498.028 456.269, 500.250 455.511 C 512.404 451.362, 553.638 440.875, 570.500 437.645 C 588.618 434.174, 619 431.112, 619 432.757 C 619 433.069, 617.847 435.292, 616.437 437.697 C 612.693 444.086, 610.053 452.755, 610.025 458.750 C 610.011 461.637, 610.164 464, 610.364 464 C 611.220 464, 621.644 466.079, 623.131 466.547 C 624.610 467.012, 624.714 465.442, 624.243 449.757 L 623.724 432.455 634.612 433.167 C 664.406 435.115, 687.314 445.462, 694.279 460.117 L 696.671 465.151 698.226 462.777 C 700.789 458.866, 705.596 446.912, 707.597 439.473 C 710.651 428.124, 710.236 406.842, 706.768 396.904 C 701.479 381.747, 688.665 365.393, 680.238 363.046 C 669.054 359.932, 647.375 355.685, 626.250 352.471 L 622 351.824 622 346.579 C 622 343.694, 622.246 341.087, 622.548 340.786 C 622.849 340.484, 626.786 341.069, 631.298 342.085 C 638.805 343.776, 639.603 343.797, 640.711 342.328 C 643.446 338.705, 640.471 336.815, 627.445 333.900 L 622.230 332.733 621.531 304.617 C 621.146 289.152, 620.457 270.214, 619.998 262.530 C 619.496 254.114, 619.534 247.871, 620.093 246.827 C 620.603 245.873, 621.299 242.429, 621.639 239.175 C 622.181 233.995, 621.993 232.993, 620.129 231.129 C 617.399 228.399, 615.756 228.445, 612.380 231.350 M 557.265 247.542 C 545.873 250.609, 541.982 253.465, 526.452 270.155 C 515.309 282.130, 502.483 285.513, 483.402 281.508 C 471.251 278.958, 459.205 279.686, 451.546 283.434 C 446.125 286.086, 432 298.157, 432 300.138 C 432 300.631, 434.242 299.897, 436.983 298.509 C 451.780 291.010, 465.280 291.324, 484.091 299.604 C 502.260 307.601, 510.617 307.981, 533.813 301.861 C 557.463 295.622, 570.585 295.912, 592.813 303.167 C 597.935 304.839, 602.389 305.944, 602.711 305.622 C 603.032 305.301, 602.721 301.027, 602.018 296.125 C 600.301 284.147, 601.090 266.268, 603.663 258.850 L 605.622 253.199 597.061 250.598 C 580.961 245.706, 567.827 244.697, 557.265 247.542 M 461.571 467.571 C 456.841 472.302, 461.414 474.613, 477 475.371 C 491.280 476.065, 490.262 475.462, 497.187 487.320 C 513.274 514.866, 515.893 554.880, 504.423 597.891 C 491.092 647.881, 461.014 701.668, 433.182 725.286 C 419.208 737.145, 410.660 741.280, 376.779 752.574 C 351.392 761.036, 346.024 763.391, 357.671 760.956 C 361.195 760.220, 374.176 759.635, 390.500 759.479 C 413.470 759.258, 419.028 758.902, 427.734 757.094 C 451.402 752.179, 471.218 742.052, 501.977 719.153 C 514.398 709.905, 520.828 706.712, 528.085 706.187 C 533.246 705.814, 534.134 706.043, 536.430 708.339 C 545.333 717.243, 529.341 746.390, 506.714 762.500 C 503.624 764.700, 501.074 766.787, 501.048 767.137 C 500.935 768.638, 514.512 770.230, 521.838 769.575 C 548.762 767.169, 573.842 754.778, 609.058 726.485 C 631.224 708.676, 637.575 705, 646.175 705 C 656.424 705, 660.682 712.936, 657.588 726.275 C 655.472 735.402, 649.122 747.651, 642.399 755.576 C 639.330 759.193, 637.112 762.445, 637.470 762.803 C 638.959 764.292, 652.879 763.233, 660.033 761.085 C 676.268 756.213, 688.316 747.791, 709.526 726.490 C 726.301 709.642, 731.428 706, 738.365 706 C 754.891 706, 756.120 728.427, 740.817 750.750 L 737.904 755 740.702 754.979 C 742.241 754.967, 746.425 753.922, 750 752.657 C 775.448 743.648, 795.797 712.081, 803.607 669.500 C 805.897 657.011, 806.222 621.664, 804.153 610 C 796.894 569.064, 779.143 534.649, 751.704 508.313 C 735.992 493.233, 734.371 492.331, 716.914 488.951 C 675.814 480.994, 616.127 474.342, 547 470.014 C 534.157 469.210, 467.727 466, 463.928 466 C 463.496 466, 462.436 466.707, 461.571 467.571 M 632.209 543.430 C 620.552 553.961, 621.598 586.174, 634.057 600.327 C 649.079 617.393, 665.795 597.037, 660.603 568 C 657.755 552.071, 650.042 541.323, 640.705 540.270 C 636.667 539.815, 635.891 540.104, 632.209 543.430 M 705.510 546.171 C 694.037 555.196, 695.787 587.710, 708.564 602.893 C 720.511 617.092, 734.623 606.051, 734.223 582.820 C 733.786 557.445, 717.540 536.708, 705.510 546.171 M 943.455 692.820 C 926.980 703.187, 900.994 719.596, 885.709 729.283 L 857.917 746.897 810.209 762.879 C 672.364 809.057, 559.252 839.141, 469.658 853.454 C 458.195 855.285, 448.383 857.217, 447.853 857.747 C 447.235 858.365, 448.236 861.901, 450.643 867.605 C 454.018 875.603, 454.402 877.408, 454.448 885.500 C 454.495 893.676, 454.206 895.095, 451.283 901 C 449.514 904.575, 447.264 908.603, 446.283 909.951 L 444.500 912.402 448.838 909.968 C 463.168 901.925, 469.120 886.335, 464.838 868.055 C 464.594 867.013, 465.896 866.395, 469.500 865.839 C 472.250 865.415, 483.725 863.671, 495 861.965 C 583.317 848.598, 698.789 819.335, 829.810 777.115 L 845.119 772.182 844.442 775.341 C 843.017 781.989, 834.866 808.038, 830.467 820 C 815.278 861.303, 793.829 900.616, 763.222 943.250 C 758.119 950.358, 760.755 949.001, 770.020 939.750 C 809.812 900.018, 841.911 845.407, 863.445 780.803 L 869.677 762.105 888.589 747.270 C 910.390 730.167, 923.868 719.490, 954.306 695.214 C 974.872 678.812, 978.051 675.515, 974.455 674.318 C 973.881 674.127, 959.931 682.453, 943.455 692.820 M 621.223 751.692 C 617.863 756.402, 616.537 760.070, 612.538 775.715 C 609.532 787.472, 608.969 791.277, 609.210 798.196 L 609.500 806.525 617.742 804.652 L 625.983 802.779 625.364 781.640 C 625.023 770.013, 624.465 757.800, 624.122 754.500 L 623.500 748.500 621.223 751.692 M 819 792.492 C 750.080 813.522, 678.772 833.592, 637.245 843.647 L 621.990 847.341 619.591 851.434 C 618.272 853.686, 614.729 857.858, 611.718 860.705 C 593.462 877.972, 566.582 887.775, 501.500 900.905 C 497.207 901.771, 497.844 901.841, 506 901.399 C 539.406 899.592, 598.583 889.270, 654.500 875.497 C 680.153 869.179, 737.339 853.562, 745.906 850.535 C 755.691 847.078, 750.080 850.166, 733.285 857.482 C 699.236 872.312, 664.527 884.632, 633.260 892.985 C 616.282 897.521, 614.487 898.218, 610.609 901.792 C 596.450 914.844, 566.876 925.499, 524.173 932.936 C 511.702 935.107, 514.329 935.409, 533.050 933.956 C 571.563 930.966, 626.755 920.029, 689.347 902.984 C 703.215 899.207, 715.847 895.628, 717.419 895.031 C 718.991 894.433, 720.440 894.107, 720.640 894.306 C 721.121 894.788, 698.729 905.030, 682.699 911.660 C 670.357 916.765, 646.230 924.958, 639 926.500 C 637.075 926.910, 633.700 928.889, 631.500 930.896 C 625.348 936.510, 620.667 939.859, 613.793 943.563 C 602.109 949.860, 614.014 947.724, 669 933.659 C 704.917 924.472, 724.879 922.757, 736.427 927.865 C 743.599 931.037, 744.397 934.086, 740.519 943.500 C 732.754 962.350, 745.345 975.308, 771.500 975.385 C 787.820 975.434, 799.310 971.240, 818.848 958.102 C 836.532 946.211, 849.150 941.482, 866.722 940.157 L 876.500 939.420 866.617 937.568 C 844.580 933.438, 828.990 937.272, 801.500 953.583 C 785.710 962.952, 770.599 966.836, 758.658 964.596 C 753.054 963.544, 749 958.833, 749 953.373 C 749 947.887, 750.455 944.990, 758.982 933.500 C 789.885 891.859, 815.538 839.991, 825.998 798 C 826.615 795.525, 827.348 792.712, 827.627 791.750 C 828.238 789.643, 828.372 789.632, 819 792.492 M 337.500 921.122 C 326.146 923.162, 317.961 925.468, 308.500 929.292 C 297.977 933.546, 285.589 939.922, 286.356 940.689 C 286.605 940.938, 289.889 940.248, 293.654 939.156 C 326.493 929.632, 356.050 930.219, 383.673 940.942 C 387.618 942.473, 399.318 948.266, 409.673 953.814 C 438.030 969.009, 455.162 975.212, 476.711 978.088 C 488.578 979.672, 513.840 978.687, 525.500 976.185 C 535.695 973.998, 555.989 967.433, 557.500 965.834 C 558.194 965.099, 557.841 964.974, 556.346 965.425 C 550.793 967.098, 531.185 968.962, 519 968.975 C 487.622 969.006, 465.128 962.586, 428 943.003 C 399.743 928.098, 389.959 924.299, 372.558 921.477 C 362.679 919.875, 345.415 919.700, 337.500 921.122" fill="#ffffff" fill-rule="evenodd"/>
  </g>

  <text x="204" y="118" font-family="Segoe UI, Helvetica, Arial, sans-serif" font-size="52">
    <tspan font-weight="300" fill="#aab4c9">Ghost</tspan><tspan font-weight="800" fill="#ffffff">Fleet</tspan>
  </text>
</svg>
